<svg width="566" height="455" viewBox="0 0 566 455" fill="none" xmlns="http://www.w3.org/2000/svg">
<path d="M206.619 385.937L202.078 279.223H38.6009L47.6829 329.742L164.046 326.904L177.67 347.906L74.3614 352.22L114.379 385.937H206.619Z" fill="#D9D9D9"/>
<path d="M337.173 275.12L350.796 385.937L510.299 388.19L540.374 350.744H407.559L399.612 332.013L409.829 324.633L546.333 326.904L556.277 270.141L337.173 275.12Z" fill="#D9D9D9"/>
<path d="M145.315 403.202L190.157 438.159L294.601 454.62L389.395 451.214L476.241 407.507H459.78L371.798 403.841L367.825 419.427L350.796 428.509H310.494L296.871 416.589H294.601L277.004 428.509H252.596L233.297 407.507L235 400.128H242.379L252.596 412.048H277.004L290.06 400.128H294.601L310.494 412.048L344.552 416.589L356.472 403.202L337.173 402.398L325.368 319.525H222.512V397.857L216.836 402.398H164.046L145.315 403.202Z" fill="#D9D9D9"/>
<path d="M325.368 303.631L320.144 259.924H556.277V188.403L512.002 97.0149L377.474 56.7134L257.137 41.9551L66.4146 90.2034L22.1397 203.161L30.0865 257.086V260.729L219.674 264.465L222.512 303.631H325.368Z" fill="#D9D9D9"/>
<path fill-rule="evenodd" clip-rule="evenodd" d="M476.241 407.507H572.17L583.523 259.924H556.277H320.144L325.368 303.631H222.512L219.674 264.465L30.0865 260.729L-10.7827 259.924L-21 270.141L7.38136 402.398L145.315 403.202L164.046 402.398H216.836L222.512 397.857V319.525H325.368L337.173 402.398L356.472 403.202L371.798 403.841L459.78 407.507H476.241ZM22.1397 385.937L0.00220871 279.223H38.6009H202.078L206.619 385.937H114.379H22.1397ZM350.796 385.937L337.173 275.12L556.277 270.141H560.818L551.736 388.775L510.299 388.19L350.796 385.937Z" fill="#001B93"/>
<path d="M540.374 350.744L542.654 347.906L546.333 326.904L409.829 324.633L399.612 332.013L407.559 350.744H540.374Z" fill="#001B93"/>
<path d="M47.6829 329.742L74.3614 352.22L177.67 347.906L164.046 326.904L47.6829 329.742Z" fill="#001B93"/>
<path d="M277.004 428.509L294.601 416.589H296.871L310.494 428.509H350.796L367.825 419.427L371.798 403.841L356.472 403.202L344.552 416.589L310.494 412.048L294.601 400.128H290.06L277.004 412.048H252.596L242.379 400.128H235L233.297 407.507L252.596 428.509H277.004Z" fill="#001B93"/>
<path fill-rule="evenodd" clip-rule="evenodd" d="M67.3256 56.9075L54.7093 72.3593L227.552 143.988L268.555 127.125L67.3256 56.9075Z" fill="#D9D9D9"/>
<path d="M32 100.173L54.7093 215.074L227.552 143.988L54.7093 72.3593L32 100.173Z" fill="#888888"/>
<path fill-rule="evenodd" clip-rule="evenodd" d="M331 143.988L304.506 130.505L484.288 0L519.613 14.8946L331 143.988Z" fill="#D9D9D9"/>
<path d="M484.288 222L580.172 40.4281L519.613 14.8946L331 143.988L484.288 222Z" fill="#D9D9D9"/>
<path d="M484.288 222L580.172 40.4281L519.613 14.8946L331 143.988L484.288 222Z" fill="#888888"/>
</svg>
